<svg width="139" height="137" viewBox="0 0 139 137" fill="none" xmlns="http://www.w3.org/2000/svg">
<g clip-path="url(#clip0_104_27)">
<path fill-rule="evenodd" clip-rule="evenodd" d="M85.9477 68.489L97.0992 57.447C107.439 61.455 119.631 59.354 127.984 51.083L132.059 47.047C141.066 38.129 141.066 23.671 132.059 14.759L127.984 18.794L111.683 34.936C109.431 37.171 105.784 37.171 103.532 34.936C101.275 32.706 101.275 29.094 103.532 26.864L119.833 10.724L123.909 6.688C114.908 -2.229 100.308 -2.229 91.3013 6.688L87.2253 10.724C78.8722 18.995 76.7504 31.067 80.7982 41.306L65.5717 56.383L11.4777 2.82L0.478683 0L3.32664 10.891L57.4207 64.453L5.71307 115.653C1.21087 120.112 1.21087 127.335 5.71307 131.794C10.2173 136.253 17.5119 136.253 22.0151 131.794L69.6467 84.63L119.135 133.634C123.64 138.093 130.934 138.093 135.438 133.634C139.941 129.175 139.941 121.951 135.438 117.492L85.9477 68.489ZM91.3013 14.759L95.3813 10.724C100.695 5.457 108.588 4.403 115.01 7.43L99.4573 22.829C94.9541 27.288 94.9541 34.517 99.4573 38.971C103.954 43.43 111.256 43.43 115.758 38.971L131.311 23.57C134.367 29.931 133.304 37.744 127.984 43.012L123.909 47.047C114.908 55.96 100.308 55.96 91.3013 47.047C82.2999 38.129 82.2999 23.671 91.3013 14.759ZM83.5613 46.64C84.6136 48.207 85.8295 49.694 87.2253 51.083C88.627 52.465 90.1308 53.669 91.7123 54.711L77.7977 68.489L69.6467 60.418L83.5613 46.64ZM17.9391 127.758C15.688 129.988 12.0402 129.988 9.78908 127.758C7.53697 125.529 7.53697 121.918 9.78908 119.689L17.9391 111.618L26.0901 119.689L17.9391 127.758ZM22.0151 107.583L61.4957 68.489L69.6467 76.56L30.1651 115.653L22.0151 107.583ZM74.3014 81.169L82.4524 73.098L119.135 109.421L110.985 117.492L74.3014 81.169ZM131.362 129.598C129.11 131.828 125.463 131.828 123.212 129.598L115.061 121.527L123.212 113.457L131.362 121.527C133.614 123.757 133.614 127.369 131.362 129.598Z" fill="#130E27"/>
</g>
<defs>
<clipPath id="clip0_104_27">
<rect width="138.358" height="137" fill="white" transform="translate(0.478683)"/>
</clipPath>
</defs>
</svg>
