<svg width="165" height="141" viewBox="0 0 165 141" fill="none" xmlns="http://www.w3.org/2000/svg">
<g clip-path="url(#clip0_104_29)">
<path fill-rule="evenodd" clip-rule="evenodd" d="M151.34 74.1864L82.7652 139.939L14.195 74.1864C-3.48148 57.2386 -3.48148 29.7698 14.195 12.8219C31.8645 -4.12004 60.5198 -4.12004 78.1953 12.8219C79.896 14.4589 81.3907 16.218 82.7652 18.0282C84.1447 16.218 85.6333 14.4589 87.3401 12.8219C105.017 -4.12004 133.664 -4.12004 151.34 12.8219C169.01 29.7698 169.01 57.2386 151.34 74.1864ZM142.196 21.5897C129.576 9.48885 109.105 9.48885 96.4778 21.5897C93.4632 24.4808 82.7652 34.7389 82.7652 34.7389C82.7652 34.7389 72.0722 24.4808 69.0505 21.5897C56.4306 9.48885 35.9668 9.48885 23.3338 21.5897C10.7129 33.7023 10.7129 53.3178 23.3338 65.4256C26.5948 68.545 82.7652 122.409 82.7652 122.409C82.7652 122.409 138.941 68.545 142.196 65.4256C154.815 53.3178 154.815 33.7023 142.196 21.5897ZM126.535 55.2186C129.009 52.8512 130.536 49.5762 130.536 45.9577C130.536 38.7236 124.42 32.8597 116.875 32.8597V26.3097C128.189 26.3097 137.366 35.11 137.366 45.9577C137.366 51.3806 135.072 56.2916 131.363 59.8481L126.535 55.2186Z" fill="#130E27"/>
</g>
<defs>
<clipPath id="clip0_104_29">
<rect width="164.616" height="140.765" fill="white" transform="translate(0.00473022 0.13446)"/>
</clipPath>
</defs>
</svg>
