<svg width="165" height="239" viewBox="0 0 165 239" fill="none" xmlns="http://www.w3.org/2000/svg">
<path d="M19.9167 205H14.2967V204.42C14.59 204.313 14.8833 204.22 15.1767 204.14C15.4833 204.06 15.81 203.993 16.1567 203.94V192.04H13.0967L12.0367 194.9H11.5367C11.4967 194.633 11.4633 194.333 11.4367 194C11.41 193.653 11.3833 193.307 11.3567 192.96C11.3433 192.6 11.33 192.253 11.3167 191.92C11.3033 191.573 11.2967 191.267 11.2967 191H22.9167C22.9167 191.267 22.91 191.567 22.8967 191.9C22.8833 192.233 22.8633 192.58 22.8367 192.94C22.8233 193.287 22.8033 193.633 22.7767 193.98C22.7633 194.313 22.7367 194.62 22.6967 194.9H22.1767L21.1367 192.04H18.0767V203.94C18.4233 204.007 18.7433 204.073 19.0367 204.14C19.3433 204.207 19.6367 204.3 19.9167 204.42V205ZM22.2499 200C22.2499 199.16 22.3566 198.42 22.5699 197.78C22.7966 197.127 23.1166 196.58 23.5299 196.14C23.9433 195.687 24.4366 195.347 25.0099 195.12C25.5966 194.88 26.2433 194.76 26.9499 194.76C27.7766 194.76 28.4899 194.887 29.0899 195.14C29.6899 195.393 30.1766 195.753 30.5499 196.22C30.9366 196.673 31.2166 197.22 31.3899 197.86C31.5766 198.5 31.6699 199.213 31.6699 200C31.6699 201.68 31.2433 202.973 30.3899 203.88C29.5366 204.787 28.3899 205.24 26.9499 205.24C26.1499 205.24 25.4566 205.12 24.8699 204.88C24.2833 204.627 23.7966 204.273 23.4099 203.82C23.0233 203.353 22.7299 202.8 22.5299 202.16C22.3433 201.507 22.2499 200.787 22.2499 200ZM24.1699 200C24.1699 200.6 24.2233 201.167 24.3299 201.7C24.4499 202.233 24.6299 202.7 24.8699 203.1C25.1233 203.487 25.4499 203.793 25.8499 204.02C26.2499 204.247 26.7299 204.36 27.2899 204.36C28.0099 204.36 28.5966 204.007 29.0499 203.3C29.5166 202.593 29.7499 201.493 29.7499 200C29.7499 199.387 29.6899 198.82 29.5699 198.3C29.4633 197.767 29.2899 197.307 29.0499 196.92C28.8099 196.52 28.5033 196.207 28.1299 195.98C27.7566 195.753 27.3099 195.64 26.7899 195.64C26.0033 195.64 25.3699 195.993 24.8899 196.7C24.4099 197.407 24.1699 198.507 24.1699 200ZM32.7046 200C32.7046 199.16 32.8113 198.42 33.0246 197.78C33.2513 197.127 33.5713 196.58 33.9846 196.14C34.398 195.687 34.8913 195.347 35.4646 195.12C36.0513 194.88 36.698 194.76 37.4046 194.76C38.2313 194.76 38.9446 194.887 39.5446 195.14C40.1446 195.393 40.6313 195.753 41.0046 196.22C41.3913 196.673 41.6713 197.22 41.8446 197.86C42.0313 198.5 42.1246 199.213 42.1246 200C42.1246 201.68 41.698 202.973 40.8446 203.88C39.9913 204.787 38.8446 205.24 37.4046 205.24C36.6046 205.24 35.9113 205.12 35.3246 204.88C34.738 204.627 34.2513 204.273 33.8646 203.82C33.478 203.353 33.1846 202.8 32.9846 202.16C32.798 201.507 32.7046 200.787 32.7046 200ZM34.6246 200C34.6246 200.6 34.678 201.167 34.7846 201.7C34.9046 202.233 35.0846 202.7 35.3246 203.1C35.578 203.487 35.9046 203.793 36.3046 204.02C36.7046 204.247 37.1846 204.36 37.7446 204.36C38.4646 204.36 39.0513 204.007 39.5046 203.3C39.9713 202.593 40.2046 201.493 40.2046 200C40.2046 199.387 40.1446 198.82 40.0246 198.3C39.918 197.767 39.7446 197.307 39.5046 196.92C39.2646 196.52 38.958 196.207 38.5846 195.98C38.2113 195.753 37.7646 195.64 37.2446 195.64C36.458 195.64 35.8246 195.993 35.3446 196.7C34.8646 197.407 34.6246 198.507 34.6246 200ZM47.5993 205H43.1593V204.5C43.5993 204.287 44.0393 204.127 44.4793 204.02V191.36L42.9593 191.2V190.68C43.306 190.52 43.7393 190.38 44.2593 190.26C44.7793 190.14 45.286 190.04 45.7793 189.96H46.2793V204.02C46.7193 204.127 47.1593 204.287 47.5993 204.5V205ZM53.6549 202.72C53.6549 202.347 53.5349 202.033 53.2949 201.78C53.0683 201.513 52.7749 201.267 52.4149 201.04C52.0549 200.813 51.6683 200.593 51.2549 200.38C50.8549 200.167 50.4749 199.92 50.1149 199.64C49.7549 199.347 49.4549 199.013 49.2149 198.64C48.9883 198.267 48.8749 197.807 48.8749 197.26C48.8749 196.9 48.9549 196.567 49.1149 196.26C49.2883 195.953 49.5149 195.693 49.7949 195.48C50.0749 195.253 50.4016 195.08 50.7749 194.96C51.1483 194.827 51.5483 194.76 51.9749 194.76C52.6949 194.76 53.2816 194.8 53.7349 194.88C54.2016 194.96 54.6483 195.073 55.0749 195.22C55.0216 195.647 54.9549 196.08 54.8749 196.52C54.8083 196.947 54.7083 197.387 54.5749 197.84H54.0749L53.3149 195.8C53.1549 195.733 52.9749 195.693 52.7749 195.68C52.5749 195.653 52.3683 195.64 52.1549 195.64C51.9149 195.64 51.7016 195.687 51.5149 195.78C51.3416 195.86 51.1883 195.967 51.0549 196.1C50.9349 196.233 50.8416 196.387 50.7749 196.56C50.7083 196.733 50.6749 196.907 50.6749 197.08C50.6749 197.44 50.7883 197.753 51.0149 198.02C51.2549 198.273 51.5549 198.513 51.9149 198.74C52.2749 198.953 52.6549 199.167 53.0549 199.38C53.4683 199.593 53.8549 199.833 54.2149 200.1C54.5749 200.367 54.8683 200.68 55.0949 201.04C55.3349 201.387 55.4549 201.807 55.4549 202.3C55.4549 202.753 55.3549 203.16 55.1549 203.52C54.9683 203.88 54.7016 204.187 54.3549 204.44C54.0216 204.693 53.6283 204.887 53.1749 205.02C52.7349 205.167 52.2616 205.24 51.7549 205.24C51.1816 205.24 50.6549 205.187 50.1749 205.08C49.6949 204.987 49.1949 204.847 48.6749 204.66C48.7016 204.18 48.7616 203.72 48.8549 203.28C48.9483 202.827 49.0683 202.393 49.2149 201.98H49.7149L50.5949 204.16C50.7416 204.267 50.9149 204.327 51.1149 204.34C51.3283 204.353 51.5216 204.36 51.6949 204.36C52.2816 204.36 52.7549 204.2 53.1149 203.88C53.4749 203.56 53.6549 203.173 53.6549 202.72ZM60.3706 195.48C60.8772 195.16 61.4106 194.933 61.9706 194.8V193.1C62.1439 192.953 62.3439 192.827 62.5706 192.72C62.8106 192.6 63.0439 192.487 63.2706 192.38H63.7706V195H66.7706V196H63.7706V201.8C63.7706 202.6 63.8972 203.167 64.1506 203.5C64.4039 203.833 64.7839 204 65.2906 204C65.5306 204 65.8306 203.987 66.1906 203.96C66.5506 203.92 66.8572 203.853 67.1106 203.76L67.2506 204.06C67.1439 204.18 66.9906 204.307 66.7906 204.44C66.6039 204.573 66.3839 204.7 66.1306 204.82C65.8906 204.94 65.6239 205.04 65.3306 205.12C65.0372 205.2 64.7372 205.24 64.4306 205.24C63.6306 205.24 63.0172 205.013 62.5906 204.56C62.1772 204.107 61.9706 203.373 61.9706 202.36V196H60.3706V195.48ZM67.7124 200C67.7124 199.16 67.8191 198.42 68.0324 197.78C68.2591 197.127 68.5791 196.58 68.9924 196.14C69.4058 195.687 69.8991 195.347 70.4724 195.12C71.0591 194.88 71.7058 194.76 72.4124 194.76C73.2391 194.76 73.9524 194.887 74.5524 195.14C75.1524 195.393 75.6391 195.753 76.0124 196.22C76.3991 196.673 76.6791 197.22 76.8524 197.86C77.0391 198.5 77.1324 199.213 77.1324 200C77.1324 201.68 76.7058 202.973 75.8524 203.88C74.9991 204.787 73.8524 205.24 72.4124 205.24C71.6124 205.24 70.9191 205.12 70.3324 204.88C69.7458 204.627 69.2591 204.273 68.8724 203.82C68.4858 203.353 68.1924 202.8 67.9924 202.16C67.8058 201.507 67.7124 200.787 67.7124 200ZM69.6324 200C69.6324 200.6 69.6858 201.167 69.7924 201.7C69.9124 202.233 70.0924 202.7 70.3324 203.1C70.5858 203.487 70.9124 203.793 71.3124 204.02C71.7124 204.247 72.1924 204.36 72.7524 204.36C73.4724 204.36 74.0591 204.007 74.5124 203.3C74.9791 202.593 75.2124 201.493 75.2124 200C75.2124 199.387 75.1524 198.82 75.0324 198.3C74.9258 197.767 74.7524 197.307 74.5124 196.92C74.2724 196.52 73.9658 196.207 73.5924 195.98C73.2191 195.753 72.7724 195.64 72.2524 195.64C71.4658 195.64 70.8324 195.993 70.3524 196.7C69.8724 197.407 69.6324 198.507 69.6324 200ZM93.0104 205H88.6904V204.5C89.0104 204.327 89.4104 204.167 89.8904 204.02V199.34C89.8904 198.3 89.7437 197.487 89.4504 196.9C89.1571 196.3 88.6237 196 87.8504 196C87.5037 196 87.1904 196.067 86.9104 196.2C86.6304 196.32 86.3771 196.48 86.1504 196.68C85.9237 196.88 85.7304 197.113 85.5704 197.38C85.4104 197.633 85.2904 197.9 85.2104 198.18V204.02C85.4237 204.073 85.6237 204.133 85.8104 204.2C86.0104 204.267 86.2037 204.367 86.3904 204.5V205H82.0904V204.5C82.5037 204.287 82.9437 204.127 83.4104 204.02V191.36L81.8904 191.2V190.68C82.2771 190.52 82.7237 190.38 83.2304 190.26C83.7504 190.14 84.2437 190.04 84.7104 189.96H85.2104V197.02H85.2304C85.5104 196.393 85.9104 195.86 86.4304 195.42C86.9637 194.98 87.6037 194.76 88.3504 194.76C88.8837 194.76 89.3571 194.827 89.7704 194.96C90.1971 195.08 90.5504 195.3 90.8304 195.62C91.1104 195.94 91.3237 196.373 91.4704 196.92C91.6171 197.453 91.6904 198.133 91.6904 198.96V204.02C91.9171 204.073 92.1437 204.133 92.3704 204.2C92.5971 204.267 92.8104 204.367 93.0104 204.5V205ZM101.669 203.6C101.562 203.827 101.395 204.04 101.169 204.24C100.942 204.44 100.682 204.613 100.389 204.76C100.095 204.907 99.7754 205.02 99.4287 205.1C99.082 205.193 98.7287 205.24 98.3687 205.24C97.582 205.24 96.8887 205.12 96.2887 204.88C95.6887 204.627 95.1887 204.273 94.7887 203.82C94.3887 203.353 94.082 202.8 93.8687 202.16C93.6687 201.52 93.5687 200.8 93.5687 200C93.5687 198.293 93.962 196.993 94.7487 196.1C95.5354 195.207 96.6487 194.76 98.0887 194.76C98.5554 194.76 99.0154 194.827 99.4687 194.96C99.922 195.08 100.322 195.287 100.669 195.58C101.029 195.873 101.315 196.267 101.529 196.76C101.755 197.24 101.869 197.84 101.869 198.56C101.869 198.787 101.855 199.02 101.829 199.26C101.815 199.487 101.782 199.733 101.729 200H95.4887C95.4887 200.56 95.5554 201.087 95.6887 201.58C95.8354 202.06 96.0487 202.48 96.3287 202.84C96.6087 203.2 96.962 203.487 97.3887 203.7C97.8154 203.9 98.3154 204 98.8887 204C99.3554 204 99.8287 203.933 100.309 203.8C100.789 203.667 101.149 203.493 101.389 203.28L101.669 203.6ZM98.0087 195.64C97.2487 195.64 96.6687 195.9 96.2687 196.42C95.8687 196.927 95.6287 197.827 95.5487 199.12H99.9487C99.962 199 99.9687 198.887 99.9687 198.78C99.982 198.66 99.9887 198.547 99.9887 198.44C99.9887 197.587 99.8287 196.907 99.5087 196.4C99.1887 195.893 98.6887 195.64 98.0087 195.64ZM107.467 205H103.027V204.5C103.467 204.287 103.907 204.127 104.347 204.02V191.36L102.827 191.2V190.68C103.174 190.52 103.607 190.38 104.127 190.26C104.647 190.14 105.154 190.04 105.647 189.96H106.147V204.02C106.587 204.127 107.027 204.287 107.467 204.5V205ZM112.683 209H108.243V208.5C108.696 208.287 109.136 208.127 109.563 208.02V196.16L108.243 196V195.48C108.67 195.293 109.103 195.147 109.543 195.04C109.996 194.92 110.436 194.827 110.863 194.76H111.363V197H111.383C111.65 196.32 112.023 195.78 112.503 195.38C112.983 194.967 113.61 194.76 114.383 194.76C115.57 194.76 116.49 195.153 117.143 195.94C117.796 196.727 118.123 198.007 118.123 199.78C118.123 200.62 118.01 201.38 117.783 202.06C117.57 202.74 117.256 203.313 116.843 203.78C116.443 204.247 115.95 204.607 115.363 204.86C114.79 205.113 114.15 205.24 113.443 205.24C112.95 205.24 112.563 205.207 112.283 205.14C112.003 205.087 111.696 204.987 111.363 204.84V208.02C111.576 208.047 111.79 208.093 112.003 208.16C112.216 208.24 112.443 208.353 112.683 208.5V209ZM113.743 196C113.09 196 112.57 196.207 112.183 196.62C111.796 197.033 111.523 197.6 111.363 198.32V203.92C111.603 204.067 111.87 204.18 112.163 204.26C112.47 204.327 112.863 204.36 113.343 204.36C113.783 204.36 114.176 204.247 114.523 204.02C114.883 203.793 115.183 203.473 115.423 203.06C115.676 202.647 115.87 202.167 116.003 201.62C116.136 201.06 116.203 200.447 116.203 199.78C116.203 199.233 116.156 198.733 116.063 198.28C115.983 197.813 115.843 197.413 115.643 197.08C115.456 196.733 115.203 196.467 114.883 196.28C114.576 196.093 114.196 196 113.743 196ZM123.454 196C123.254 195.947 123.068 195.88 122.894 195.8C122.734 195.72 122.568 195.627 122.394 195.52V195H126.574V195.5C126.294 195.687 125.914 195.853 125.434 196L127.994 201.92L128.374 203.16H128.414L128.714 201.9L130.614 196C130.214 195.92 129.848 195.76 129.514 195.52V195H132.934V195.52C132.654 195.707 132.274 195.867 131.794 196L128.674 205C128.354 205.853 128.048 206.54 127.754 207.06C127.474 207.593 127.188 208.013 126.894 208.32C126.614 208.627 126.321 208.847 126.014 208.98C125.721 209.127 125.401 209.233 125.054 209.3C124.908 209.047 124.774 208.767 124.654 208.46C124.548 208.153 124.454 207.86 124.374 207.58L124.634 207.1H126.714C126.794 206.993 126.861 206.887 126.914 206.78C126.981 206.687 127.048 206.567 127.114 206.42C127.181 206.273 127.254 206.087 127.334 205.86C127.414 205.633 127.508 205.347 127.614 205L123.454 196ZM132.58 200C132.58 199.16 132.687 198.42 132.9 197.78C133.127 197.127 133.447 196.58 133.86 196.14C134.274 195.687 134.767 195.347 135.34 195.12C135.927 194.88 136.574 194.76 137.28 194.76C138.107 194.76 138.82 194.887 139.42 195.14C140.02 195.393 140.507 195.753 140.88 196.22C141.267 196.673 141.547 197.22 141.72 197.86C141.907 198.5 142 199.213 142 200C142 201.68 141.574 202.973 140.72 203.88C139.867 204.787 138.72 205.24 137.28 205.24C136.48 205.24 135.787 205.12 135.2 204.88C134.614 204.627 134.127 204.273 133.74 203.82C133.354 203.353 133.06 202.8 132.86 202.16C132.674 201.507 132.58 200.787 132.58 200ZM134.5 200C134.5 200.6 134.554 201.167 134.66 201.7C134.78 202.233 134.96 202.7 135.2 203.1C135.454 203.487 135.78 203.793 136.18 204.02C136.58 204.247 137.06 204.36 137.62 204.36C138.34 204.36 138.927 204.007 139.38 203.3C139.847 202.593 140.08 201.493 140.08 200C140.08 199.387 140.02 198.82 139.9 198.3C139.794 197.767 139.62 197.307 139.38 196.92C139.14 196.52 138.834 196.207 138.46 195.98C138.087 195.753 137.64 195.64 137.12 195.64C136.334 195.64 135.7 195.993 135.22 196.7C134.74 197.407 134.5 198.507 134.5 200ZM143.755 201.04C143.755 200.2 143.775 199.38 143.815 198.58C143.855 197.767 143.875 196.96 143.875 196.16L142.555 196V195.48C142.982 195.32 143.415 195.18 143.855 195.06C144.308 194.94 144.748 194.84 145.175 194.76H145.675C145.675 195.76 145.655 196.753 145.615 197.74C145.575 198.727 145.555 199.707 145.555 200.68C145.555 201.2 145.582 201.667 145.635 202.08C145.702 202.493 145.808 202.84 145.955 203.12C146.115 203.4 146.328 203.62 146.595 203.78C146.862 203.927 147.202 204 147.615 204C148.215 204 148.715 203.787 149.115 203.36C149.528 202.92 149.848 202.353 150.075 201.66V196.16L148.775 196V195.48C149.188 195.32 149.615 195.18 150.055 195.06C150.508 194.94 150.948 194.84 151.375 194.76H151.875V203.86L153.195 204.02V204.44C152.808 204.613 152.415 204.767 152.015 204.9C151.628 205.033 151.222 205.133 150.795 205.2H150.295L150.155 202.82H150.075C150.008 203.1 149.888 203.387 149.715 203.68C149.555 203.96 149.342 204.22 149.075 204.46C148.808 204.687 148.502 204.873 148.155 205.02C147.822 205.167 147.455 205.24 147.055 205.24C146.522 205.24 146.048 205.173 145.635 205.04C145.235 204.92 144.895 204.7 144.615 204.38C144.335 204.06 144.122 203.633 143.975 203.1C143.828 202.553 143.755 201.867 143.755 201.04ZM7.08307 230.72C7.08307 230.347 6.96307 230.033 6.72307 229.78C6.4964 229.513 6.20307 229.267 5.84307 229.04C5.48307 228.813 5.0964 228.593 4.68307 228.38C4.28307 228.167 3.90307 227.92 3.54307 227.64C3.18307 227.347 2.88307 227.013 2.64307 226.64C2.4164 226.267 2.30307 225.807 2.30307 225.26C2.30307 224.9 2.38307 224.567 2.54307 224.26C2.7164 223.953 2.94307 223.693 3.22307 223.48C3.50307 223.253 3.82973 223.08 4.20307 222.96C4.5764 222.827 4.9764 222.76 5.40307 222.76C6.12307 222.76 6.70973 222.8 7.16307 222.88C7.62973 222.96 8.0764 223.073 8.50307 223.22C8.44973 223.647 8.38307 224.08 8.30307 224.52C8.2364 224.947 8.1364 225.387 8.00307 225.84H7.50307L6.74307 223.8C6.58307 223.733 6.40307 223.693 6.20307 223.68C6.00307 223.653 5.7964 223.64 5.58307 223.64C5.34307 223.64 5.12973 223.687 4.94307 223.78C4.76973 223.86 4.6164 223.967 4.48307 224.1C4.36307 224.233 4.26973 224.387 4.20307 224.56C4.1364 224.733 4.10307 224.907 4.10307 225.08C4.10307 225.44 4.2164 225.753 4.44307 226.02C4.68307 226.273 4.98307 226.513 5.34307 226.74C5.70307 226.953 6.08307 227.167 6.48307 227.38C6.8964 227.593 7.28307 227.833 7.64307 228.1C8.00307 228.367 8.2964 228.68 8.52307 229.04C8.76307 229.387 8.88307 229.807 8.88307 230.3C8.88307 230.753 8.78307 231.16 8.58307 231.52C8.3964 231.88 8.12973 232.187 7.78307 232.44C7.44973 232.693 7.0564 232.887 6.60307 233.02C6.16307 233.167 5.68973 233.24 5.18307 233.24C4.60973 233.24 4.08307 233.187 3.60307 233.08C3.12307 232.987 2.62307 232.847 2.10307 232.66C2.12973 232.18 2.18973 231.72 2.28307 231.28C2.3764 230.827 2.4964 230.393 2.64307 229.98H3.14307L4.02307 232.16C4.16973 232.267 4.34307 232.327 4.54307 232.34C4.7564 232.353 4.94973 232.36 5.12307 232.36C5.70973 232.36 6.18307 232.2 6.54307 231.88C6.90307 231.56 7.08307 231.173 7.08307 230.72ZM10.7754 229.04C10.7754 228.2 10.7954 227.38 10.8354 226.58C10.8754 225.767 10.8954 224.96 10.8954 224.16L9.57541 224V223.48C10.0021 223.32 10.4354 223.18 10.8754 223.06C11.3287 222.94 11.7687 222.84 12.1954 222.76H12.6954C12.6954 223.76 12.6754 224.753 12.6354 225.74C12.5954 226.727 12.5754 227.707 12.5754 228.68C12.5754 229.2 12.6021 229.667 12.6554 230.08C12.7221 230.493 12.8287 230.84 12.9754 231.12C13.1354 231.4 13.3487 231.62 13.6154 231.78C13.8821 231.927 14.2221 232 14.6354 232C15.2354 232 15.7354 231.787 16.1354 231.36C16.5487 230.92 16.8687 230.353 17.0954 229.66V224.16L15.7954 224V223.48C16.2087 223.32 16.6354 223.18 17.0754 223.06C17.5287 222.94 17.9687 222.84 18.3954 222.76H18.8954V231.86L20.2154 232.02V232.44C19.8287 232.613 19.4354 232.767 19.0354 232.9C18.6487 233.033 18.2421 233.133 17.8154 233.2H17.3154L17.1754 230.82H17.0954C17.0287 231.1 16.9087 231.387 16.7354 231.68C16.5754 231.96 16.3621 232.22 16.0954 232.46C15.8287 232.687 15.5221 232.873 15.1754 233.02C14.8421 233.167 14.4754 233.24 14.0754 233.24C13.5421 233.24 13.0687 233.173 12.6554 233.04C12.2554 232.92 11.9154 232.7 11.6354 232.38C11.3554 232.06 11.1421 231.633 10.9954 231.1C10.8487 230.553 10.7754 229.867 10.7754 229.04ZM28.6598 231.6C28.4198 232.067 28.0265 232.46 27.4798 232.78C26.9465 233.087 26.3198 233.24 25.5998 233.24C24.8131 233.24 24.1265 233.12 23.5398 232.88C22.9665 232.627 22.4865 232.273 22.0998 231.82C21.7131 231.353 21.4198 230.8 21.2198 230.16C21.0331 229.507 20.9398 228.787 20.9398 228C20.9398 226.307 21.3531 225.013 22.1798 224.12C23.0065 223.213 24.1331 222.76 25.5598 222.76C26.2131 222.76 26.7931 222.82 27.2998 222.94C27.8198 223.047 28.2598 223.193 28.6198 223.38C28.5798 223.82 28.5065 224.313 28.3998 224.86C28.2931 225.407 28.1598 225.86 27.9998 226.22H27.4598L26.6198 223.84C26.5265 223.773 26.4198 223.727 26.2998 223.7C26.1798 223.66 25.9798 223.64 25.6998 223.64C24.7931 223.64 24.0931 223.973 23.5998 224.64C23.1065 225.293 22.8598 226.407 22.8598 227.98C22.8598 228.487 22.9265 228.98 23.0598 229.46C23.2065 229.94 23.4198 230.373 23.6998 230.76C23.9931 231.133 24.3531 231.433 24.7798 231.66C25.2198 231.887 25.7265 232 26.2998 232C26.7665 232 27.1731 231.933 27.5198 231.8C27.8665 231.667 28.1598 231.507 28.3998 231.32L28.6598 231.6ZM37.0246 231.6C36.7846 232.067 36.3913 232.46 35.8446 232.78C35.3113 233.087 34.6846 233.24 33.9646 233.24C33.178 233.24 32.4913 233.12 31.9046 232.88C31.3313 232.627 30.8513 232.273 30.4646 231.82C30.078 231.353 29.7846 230.8 29.5846 230.16C29.398 229.507 29.3046 228.787 29.3046 228C29.3046 226.307 29.718 225.013 30.5446 224.12C31.3713 223.213 32.498 222.76 33.9246 222.76C34.578 222.76 35.158 222.82 35.6646 222.94C36.1846 223.047 36.6246 223.193 36.9846 223.38C36.9446 223.82 36.8713 224.313 36.7646 224.86C36.658 225.407 36.5246 225.86 36.3646 226.22H35.8246L34.9846 223.84C34.8913 223.773 34.7846 223.727 34.6646 223.7C34.5446 223.66 34.3446 223.64 34.0646 223.64C33.158 223.64 32.458 223.973 31.9646 224.64C31.4713 225.293 31.2246 226.407 31.2246 227.98C31.2246 228.487 31.2913 228.98 31.4246 229.46C31.5713 229.94 31.7846 230.373 32.0646 230.76C32.358 231.133 32.718 231.433 33.1446 231.66C33.5846 231.887 34.0913 232 34.6646 232C35.1313 232 35.538 231.933 35.8846 231.8C36.2313 231.667 36.5246 231.507 36.7646 231.32L37.0246 231.6ZM45.7695 231.6C45.6628 231.827 45.4961 232.04 45.2695 232.24C45.0428 232.44 44.7828 232.613 44.4895 232.76C44.1961 232.907 43.8761 233.02 43.5295 233.1C43.1828 233.193 42.8295 233.24 42.4695 233.24C41.6828 233.24 40.9895 233.12 40.3895 232.88C39.7895 232.627 39.2895 232.273 38.8895 231.82C38.4895 231.353 38.1828 230.8 37.9695 230.16C37.7695 229.52 37.6695 228.8 37.6695 228C37.6695 226.293 38.0628 224.993 38.8495 224.1C39.6361 223.207 40.7495 222.76 42.1895 222.76C42.6561 222.76 43.1161 222.827 43.5695 222.96C44.0228 223.08 44.4228 223.287 44.7695 223.58C45.1295 223.873 45.4161 224.267 45.6295 224.76C45.8561 225.24 45.9695 225.84 45.9695 226.56C45.9695 226.787 45.9561 227.02 45.9295 227.26C45.9161 227.487 45.8828 227.733 45.8295 228H39.5895C39.5895 228.56 39.6561 229.087 39.7895 229.58C39.9361 230.06 40.1495 230.48 40.4295 230.84C40.7095 231.2 41.0628 231.487 41.4895 231.7C41.9161 231.9 42.4161 232 42.9895 232C43.4561 232 43.9295 231.933 44.4095 231.8C44.8895 231.667 45.2495 231.493 45.4895 231.28L45.7695 231.6ZM42.1095 223.64C41.3495 223.64 40.7695 223.9 40.3695 224.42C39.9695 224.927 39.7295 225.827 39.6495 227.12H44.0495C44.0628 227 44.0695 226.887 44.0695 226.78C44.0828 226.66 44.0895 226.547 44.0895 226.44C44.0895 225.587 43.9295 224.907 43.6095 224.4C43.2895 223.893 42.7895 223.64 42.1095 223.64ZM55.2281 231.6C55.1214 231.827 54.9547 232.04 54.7281 232.24C54.5014 232.44 54.2414 232.613 53.9481 232.76C53.6547 232.907 53.3347 233.02 52.9881 233.1C52.6414 233.193 52.2881 233.24 51.9281 233.24C51.1414 233.24 50.4481 233.12 49.8481 232.88C49.2481 232.627 48.7481 232.273 48.3481 231.82C47.9481 231.353 47.6414 230.8 47.4281 230.16C47.2281 229.52 47.1281 228.8 47.1281 228C47.1281 226.293 47.5214 224.993 48.3081 224.1C49.0947 223.207 50.2081 222.76 51.6481 222.76C52.1147 222.76 52.5747 222.827 53.0281 222.96C53.4814 223.08 53.8814 223.287 54.2281 223.58C54.5881 223.873 54.8747 224.267 55.0881 224.76C55.3147 225.24 55.4281 225.84 55.4281 226.56C55.4281 226.787 55.4147 227.02 55.3881 227.26C55.3747 227.487 55.3414 227.733 55.2881 228H49.0481C49.0481 228.56 49.1147 229.087 49.2481 229.58C49.3947 230.06 49.6081 230.48 49.8881 230.84C50.1681 231.2 50.5214 231.487 50.9481 231.7C51.3747 231.9 51.8747 232 52.4481 232C52.9147 232 53.3881 231.933 53.8681 231.8C54.3481 231.667 54.7081 231.493 54.9481 231.28L55.2281 231.6ZM51.5681 223.64C50.8081 223.64 50.2281 223.9 49.8281 224.42C49.4281 224.927 49.1881 225.827 49.1081 227.12H53.5081C53.5214 227 53.5281 226.887 53.5281 226.78C53.5414 226.66 53.5481 226.547 53.5481 226.44C53.5481 225.587 53.3881 224.907 53.0681 224.4C52.7481 223.893 52.2481 223.64 51.5681 223.64ZM63.2267 231.02C63.16 231.313 63.0467 231.593 62.8867 231.86C62.7267 232.127 62.5267 232.367 62.2867 232.58C62.06 232.78 61.7933 232.94 61.4867 233.06C61.1933 233.18 60.8733 233.24 60.5267 233.24C59.2067 233.24 58.22 232.82 57.5667 231.98C56.9133 231.14 56.5867 229.833 56.5867 228.06C56.5867 226.353 57 225.053 57.8267 224.16C58.6667 223.267 59.7933 222.82 61.2067 222.82C61.7 222.82 62.0867 222.847 62.3667 222.9C62.6467 222.94 62.9533 223.02 63.2867 223.14V219.36L61.7667 219.2V218.68C62.1533 218.52 62.6 218.38 63.1067 218.26C63.6267 218.14 64.12 218.04 64.5867 217.96H65.0867V231.86L66.4067 232.02V232.44C66.02 232.627 65.62 232.787 65.2067 232.92C64.7933 233.053 64.3867 233.147 63.9867 233.2H63.4867L63.3067 231.02H63.2267ZM60.9267 232C61.58 232 62.1 231.793 62.4867 231.38C62.8733 230.967 63.14 230.407 63.2867 229.7V224.06C63.06 223.927 62.7933 223.833 62.4867 223.78C62.18 223.727 61.7867 223.7 61.3067 223.7C60.4 223.7 59.7067 224.1 59.2267 224.9C58.7467 225.687 58.5067 226.74 58.5067 228.06C58.5067 228.607 58.5533 229.12 58.6467 229.6C58.74 230.067 58.8867 230.48 59.0867 230.84C59.2867 231.2 59.5333 231.487 59.8267 231.7C60.1333 231.9 60.5 232 60.9267 232ZM70.8237 223.48C71.3304 223.16 71.8637 222.933 72.4237 222.8V221.1C72.597 220.953 72.797 220.827 73.0237 220.72C73.2637 220.6 73.497 220.487 73.7237 220.38H74.2237V223H77.2237V224H74.2237V229.8C74.2237 230.6 74.3504 231.167 74.6037 231.5C74.857 231.833 75.237 232 75.7437 232C75.9837 232 76.2837 231.987 76.6437 231.96C77.0037 231.92 77.3104 231.853 77.5637 231.76L77.7037 232.06C77.597 232.18 77.4437 232.307 77.2437 232.44C77.057 232.573 76.837 232.7 76.5837 232.82C76.3437 232.94 76.077 233.04 75.7837 233.12C75.4904 233.2 75.1904 233.24 74.8837 233.24C74.0837 233.24 73.4704 233.013 73.0437 232.56C72.6304 232.107 72.4237 231.373 72.4237 230.36V224H70.8237V223.48ZM78.1656 228C78.1656 227.16 78.2722 226.42 78.4856 225.78C78.7122 225.127 79.0322 224.58 79.4456 224.14C79.8589 223.687 80.3522 223.347 80.9256 223.12C81.5122 222.88 82.1589 222.76 82.8656 222.76C83.6922 222.76 84.4056 222.887 85.0056 223.14C85.6056 223.393 86.0922 223.753 86.4656 224.22C86.8522 224.673 87.1322 225.22 87.3056 225.86C87.4922 226.5 87.5856 227.213 87.5856 228C87.5856 229.68 87.1589 230.973 86.3056 231.88C85.4522 232.787 84.3056 233.24 82.8656 233.24C82.0656 233.24 81.3722 233.12 80.7856 232.88C80.1989 232.627 79.7122 232.273 79.3256 231.82C78.9389 231.353 78.6456 230.8 78.4456 230.16C78.2589 229.507 78.1656 228.787 78.1656 228ZM80.0856 228C80.0856 228.6 80.1389 229.167 80.2456 229.7C80.3656 230.233 80.5456 230.7 80.7856 231.1C81.0389 231.487 81.3656 231.793 81.7656 232.02C82.1656 232.247 82.6456 232.36 83.2056 232.36C83.9256 232.36 84.5122 232.007 84.9656 231.3C85.4322 230.593 85.6656 229.493 85.6656 228C85.6656 227.387 85.6056 226.82 85.4856 226.3C85.3789 225.767 85.2056 225.307 84.9656 224.92C84.7256 224.52 84.4189 224.207 84.0456 223.98C83.6722 223.753 83.2256 223.64 82.7056 223.64C81.9189 223.64 81.2856 223.993 80.8056 224.7C80.3256 225.407 80.0856 226.507 80.0856 228ZM98.7603 233H94.4803V232.5C94.6136 232.42 94.7736 232.34 94.9603 232.26C95.1603 232.167 95.3936 232.087 95.6603 232.02V227.4C95.6603 226.867 95.6336 226.387 95.5803 225.96C95.5403 225.533 95.4536 225.18 95.3203 224.9C95.2003 224.607 95.0203 224.387 94.7803 224.24C94.5403 224.08 94.2269 224 93.8403 224C93.5469 224 93.2736 224.06 93.0203 224.18C92.7803 224.3 92.5603 224.46 92.3603 224.66C92.1736 224.86 92.0069 225.087 91.8603 225.34C91.7269 225.593 91.6203 225.86 91.5403 226.14V232.02C91.7536 232.087 91.9536 232.16 92.1403 232.24C92.3403 232.307 92.5336 232.393 92.7203 232.5V233H88.4203V232.5C88.6069 232.407 88.8136 232.32 89.0403 232.24C89.2669 232.16 89.5003 232.087 89.7403 232.02V224.16L88.4203 224V223.48C88.8469 223.293 89.2803 223.147 89.7203 223.04C90.1736 222.92 90.6136 222.827 91.0403 222.76H91.5403V225.02H91.5603C91.7736 224.393 92.1336 223.86 92.6403 223.42C93.1603 222.98 93.8003 222.76 94.5603 222.76C94.8803 222.76 95.1869 222.793 95.4803 222.86C95.7736 222.927 96.0469 223.053 96.3003 223.24C96.5536 223.413 96.7669 223.66 96.9403 223.98C97.1136 224.3 97.2403 224.713 97.3203 225.22C97.5603 224.487 97.9469 223.893 98.4803 223.44C99.0136 222.987 99.6803 222.76 100.48 222.76C100.974 222.76 101.4 222.827 101.76 222.96C102.134 223.08 102.44 223.3 102.68 223.62C102.92 223.94 103.094 224.373 103.2 224.92C103.32 225.467 103.38 226.16 103.38 227V232.02C103.834 232.1 104.274 232.26 104.7 232.5V233H100.4V232.5C100.8 232.287 101.194 232.127 101.58 232.02V227.04C101.58 226.56 101.554 226.133 101.5 225.76C101.46 225.387 101.374 225.073 101.24 224.82C101.107 224.553 100.92 224.353 100.68 224.22C100.44 224.073 100.12 224 99.7203 224C99.0803 224 98.5803 224.22 98.2203 224.66C97.8736 225.1 97.6203 225.66 97.4603 226.34V232.02C97.9269 232.153 98.3603 232.313 98.7603 232.5V233ZM115.426 233H111.146V232.5C111.279 232.42 111.439 232.34 111.626 232.26C111.826 232.167 112.059 232.087 112.326 232.02V227.4C112.326 226.867 112.299 226.387 112.246 225.96C112.206 225.533 112.119 225.18 111.986 224.9C111.866 224.607 111.686 224.387 111.446 224.24C111.206 224.08 110.893 224 110.506 224C110.213 224 109.939 224.06 109.686 224.18C109.446 224.3 109.226 224.46 109.026 224.66C108.839 224.86 108.673 225.087 108.526 225.34C108.393 225.593 108.286 225.86 108.206 226.14V232.02C108.419 232.087 108.619 232.16 108.806 232.24C109.006 232.307 109.199 232.393 109.386 232.5V233H105.086V232.5C105.273 232.407 105.479 232.32 105.706 232.24C105.933 232.16 106.166 232.087 106.406 232.02V224.16L105.086 224V223.48C105.513 223.293 105.946 223.147 106.386 223.04C106.839 222.92 107.279 222.827 107.706 222.76H108.206V225.02H108.226C108.439 224.393 108.799 223.86 109.306 223.42C109.826 222.98 110.466 222.76 111.226 222.76C111.546 222.76 111.853 222.793 112.146 222.86C112.439 222.927 112.713 223.053 112.966 223.24C113.219 223.413 113.433 223.66 113.606 223.98C113.779 224.3 113.906 224.713 113.986 225.22C114.226 224.487 114.613 223.893 115.146 223.44C115.679 222.987 116.346 222.76 117.146 222.76C117.639 222.76 118.066 222.827 118.426 222.96C118.799 223.08 119.106 223.3 119.346 223.62C119.586 223.94 119.759 224.373 119.866 224.92C119.986 225.467 120.046 226.16 120.046 227V232.02C120.499 232.1 120.939 232.26 121.366 232.5V233H117.066V232.5C117.466 232.287 117.859 232.127 118.246 232.02V227.04C118.246 226.56 118.219 226.133 118.166 225.76C118.126 225.387 118.039 225.073 117.906 224.82C117.773 224.553 117.586 224.353 117.346 224.22C117.106 224.073 116.786 224 116.386 224C115.746 224 115.246 224.22 114.886 224.66C114.539 225.1 114.286 225.66 114.126 226.34V232.02C114.593 232.153 115.026 232.313 115.426 232.5V233ZM121.952 228C121.952 227.16 122.058 226.42 122.272 225.78C122.498 225.127 122.818 224.58 123.232 224.14C123.645 223.687 124.138 223.347 124.712 223.12C125.298 222.88 125.945 222.76 126.652 222.76C127.478 222.76 128.192 222.887 128.792 223.14C129.392 223.393 129.878 223.753 130.252 224.22C130.638 224.673 130.918 225.22 131.092 225.86C131.278 226.5 131.372 227.213 131.372 228C131.372 229.68 130.945 230.973 130.092 231.88C129.238 232.787 128.092 233.24 126.652 233.24C125.852 233.24 125.158 233.12 124.572 232.88C123.985 232.627 123.498 232.273 123.112 231.82C122.725 231.353 122.432 230.8 122.232 230.16C122.045 229.507 121.952 228.787 121.952 228ZM123.872 228C123.872 228.6 123.925 229.167 124.032 229.7C124.152 230.233 124.332 230.7 124.572 231.1C124.825 231.487 125.152 231.793 125.552 232.02C125.952 232.247 126.432 232.36 126.992 232.36C127.712 232.36 128.298 232.007 128.752 231.3C129.218 230.593 129.452 229.493 129.452 228C129.452 227.387 129.392 226.82 129.272 226.3C129.165 225.767 128.992 225.307 128.752 224.92C128.512 224.52 128.205 224.207 127.832 223.98C127.458 223.753 127.012 223.64 126.492 223.64C125.705 223.64 125.072 223.993 124.592 224.7C124.112 225.407 123.872 226.507 123.872 228ZM136.466 224.5C136.32 224.58 136.133 224.747 135.906 225C135.693 225.24 135.5 225.6 135.326 226.08V232.02C135.593 232.047 135.86 232.1 136.126 232.18C136.393 232.247 136.66 232.353 136.926 232.5V233H132.206V232.5C132.446 232.367 132.673 232.267 132.886 232.2C133.1 232.133 133.313 232.073 133.526 232.02V224.16L132.206 224V223.48C132.633 223.293 133.073 223.147 133.526 223.04C133.98 222.92 134.413 222.827 134.826 222.76H135.326V224.88H135.406C135.526 224.613 135.693 224.347 135.906 224.08C136.133 223.813 136.386 223.573 136.666 223.36C136.96 223.147 137.273 222.987 137.606 222.88C137.953 222.76 138.306 222.72 138.666 222.76C138.76 222.933 138.84 223.127 138.906 223.34C138.986 223.54 139.06 223.753 139.126 223.98V224.5H136.466ZM139.482 228C139.482 227.16 139.589 226.42 139.802 225.78C140.029 225.127 140.349 224.58 140.762 224.14C141.175 223.687 141.669 223.347 142.242 223.12C142.829 222.88 143.475 222.76 144.182 222.76C145.009 222.76 145.722 222.887 146.322 223.14C146.922 223.393 147.409 223.753 147.782 224.22C148.169 224.673 148.449 225.22 148.622 225.86C148.809 226.5 148.902 227.213 148.902 228C148.902 229.68 148.475 230.973 147.622 231.88C146.769 232.787 145.622 233.24 144.182 233.24C143.382 233.24 142.689 233.12 142.102 232.88C141.515 232.627 141.029 232.273 140.642 231.82C140.255 231.353 139.962 230.8 139.762 230.16C139.575 229.507 139.482 228.787 139.482 228ZM141.402 228C141.402 228.6 141.455 229.167 141.562 229.7C141.682 230.233 141.862 230.7 142.102 231.1C142.355 231.487 142.682 231.793 143.082 232.02C143.482 232.247 143.962 232.36 144.522 232.36C145.242 232.36 145.829 232.007 146.282 231.3C146.749 230.593 146.982 229.493 146.982 228C146.982 227.387 146.922 226.82 146.802 226.3C146.695 225.767 146.522 225.307 146.282 224.92C146.042 224.52 145.735 224.207 145.362 223.98C144.989 223.753 144.542 223.64 144.022 223.64C143.235 223.64 142.602 223.993 142.122 224.7C141.642 225.407 141.402 226.507 141.402 228ZM152.882 233.24L149.742 224C149.556 223.933 149.369 223.867 149.182 223.8C149.009 223.72 148.842 223.627 148.682 223.52V223H152.842V223.5C152.656 223.607 152.469 223.707 152.282 223.8C152.096 223.88 151.902 223.947 151.702 224L153.442 229.84L153.702 231.28H153.742L154.042 229.8L156.202 223.2L156.802 223L159.102 229.82L159.462 231.28H159.502L159.802 229.82L161.342 224C161.196 223.973 161.022 223.92 160.822 223.84C160.636 223.76 160.442 223.653 160.242 223.52V223H163.642V223.52C163.362 223.707 162.982 223.867 162.502 224L159.662 233L158.602 233.24L156.622 227.58L156.242 225.92H156.182L155.722 227.58L153.922 233L152.882 233.24Z" fill="#161616"/>
<g clip-path="url(#clip0_107_43)">
<path fill-rule="evenodd" clip-rule="evenodd" d="M97.9477 68.489L109.099 57.447C119.439 61.455 131.631 59.354 139.984 51.083L144.059 47.047C153.066 38.129 153.066 23.671 144.059 14.759L139.984 18.794L123.683 34.936C121.431 37.171 117.784 37.171 115.532 34.936C113.275 32.706 113.275 29.094 115.532 26.864L131.833 10.724L135.909 6.688C126.908 -2.229 112.308 -2.229 103.301 6.688L99.2253 10.724C90.8722 18.995 88.7504 31.067 92.7982 41.306L77.5717 56.383L23.4777 2.82L12.4787 0L15.3266 10.891L69.4207 64.453L17.7131 115.653C13.2109 120.112 13.2109 127.335 17.7131 131.794C22.2173 136.253 29.5119 136.253 34.0151 131.794L81.6467 84.63L131.135 133.634C135.64 138.093 142.934 138.093 147.438 133.634C151.941 129.175 151.941 121.951 147.438 117.492L97.9477 68.489ZM103.301 14.759L107.381 10.724C112.695 5.457 120.588 4.403 127.01 7.43L111.457 22.829C106.954 27.288 106.954 34.517 111.457 38.971C115.954 43.43 123.256 43.43 127.758 38.971L143.311 23.57C146.367 29.931 145.304 37.744 139.984 43.012L135.909 47.047C126.908 55.96 112.308 55.96 103.301 47.047C94.2999 38.129 94.2999 23.671 103.301 14.759ZM95.5613 46.64C96.6136 48.207 97.8295 49.694 99.2253 51.083C100.627 52.465 102.131 53.669 103.712 54.711L89.7977 68.489L81.6467 60.418L95.5613 46.64ZM29.9391 127.758C27.688 129.988 24.0402 129.988 21.7891 127.758C19.537 125.529 19.537 121.918 21.7891 119.689L29.9391 111.618L38.0901 119.689L29.9391 127.758ZM34.0151 107.583L73.4957 68.489L81.6467 76.56L42.1651 115.653L34.0151 107.583ZM86.3014 81.169L94.4524 73.098L131.135 109.421L122.985 117.492L86.3014 81.169ZM143.362 129.598C141.11 131.828 137.463 131.828 135.212 129.598L127.061 121.527L135.212 113.457L143.362 121.527C145.614 123.757 145.614 127.369 143.362 129.598Z" fill="#130E27"/>
</g>
<defs>
<clipPath id="clip0_107_43">
<rect width="138.358" height="137" fill="white" transform="translate(12.4787)"/>
</clipPath>
</defs>
</svg>
